<svg width="24" height="24" viewBox="0 0 24 24" fill="none" xmlns="http://www.w3.org/2000/svg">
<g clip-path="url(#clip0_119_66)">
<path d="M5.35547 17.3086C5.35547 17.3008 5.36719 17.2422 5.39062 17.1328C5.41406 17.0234 5.44922 16.8867 5.49609 16.7227C5.54297 16.5586 5.58203 16.3789 5.61328 16.1836C5.64453 15.9883 5.6875 15.8047 5.74219 15.6328C5.79688 15.4609 5.83594 15.3086 5.85938 15.1758C5.88281 15.043 5.90234 14.9648 5.91797 14.9414L7.20703 15.6914C7.15234 15.7461 7.07031 15.8242 6.96094 15.9258C6.85156 16.0273 6.73438 16.1367 6.60938 16.2539C6.48438 16.3711 6.34766 16.4961 6.19922 16.6289C6.05078 16.7617 5.92578 16.8828 5.82422 16.9922C5.72266 17.1016 5.625 17.1875 5.53125 17.25C5.4375 17.3125 5.39453 17.3477 5.40234 17.3555C5.37109 17.3555 5.35547 17.3398 5.35547 17.3086ZM17.5312 14.2148C17.5625 14.2148 17.5859 14.2188 17.6016 14.2266C17.7969 14.2969 17.9648 14.4023 18.1055 14.543C18.2461 14.6836 18.3672 14.8516 18.4688 15.0469C18.5703 15.2422 18.6406 15.4375 18.6797 15.6328C18.7188 15.8281 18.7422 16.0312 18.75 16.2422C18.75 16.2812 18.7422 16.3672 18.7266 16.5C18.7109 16.6328 18.6875 16.7773 18.6562 16.9336C18.625 17.0898 18.5898 17.2266 18.5508 17.3438C18.5117 17.4609 18.4688 17.5195 18.4219 17.5195C18.3906 17.5195 18.3711 17.5078 18.3633 17.4844C18.3086 17.3828 18.2617 17.2852 18.2227 17.1914C18.1836 17.0977 18.125 17.0039 18.0469 16.9102C17.9141 16.7461 17.7617 16.6172 17.5898 16.5234C17.418 16.4297 17.25 16.3242 17.0859 16.207C16.9219 16.0898 16.7891 15.9609 16.6875 15.8203C16.5859 15.6797 16.5312 15.4648 16.5234 15.1758C16.5234 15.0977 16.5312 15 16.5469 14.8828C16.5625 14.7656 16.6055 14.6875 16.6758 14.6484L17.3906 14.25C17.4219 14.2266 17.4688 14.2148 17.5312 14.2148ZM17.5664 13.8867L16.2773 14.6133L15.4102 13.0781C15.6133 12.9453 15.8242 12.8203 16.043 12.7031C16.2617 12.5859 16.4766 12.4688 16.6875 12.3516L17.5664 13.8867ZM11.7305 7.92188C11.7305 7.96875 11.6992 8.05078 11.6367 8.16797C11.5742 8.28516 11.5039 8.41797 11.4258 8.56641C11.3477 8.71484 11.2656 8.84766 11.1797 8.96484C11.0938 9.08203 11.0391 9.16797 11.0156 9.22266L9.66797 8.42578L10.3477 7.26562C10.4023 7.1875 10.4727 7.14844 10.5586 7.14844C10.5977 7.14844 10.668 7.17188 10.7695 7.21875C10.8711 7.26562 10.9766 7.32422 11.0859 7.39453C11.1953 7.46484 11.3008 7.53125 11.4023 7.59375C11.5039 7.65625 11.5742 7.69922 11.6133 7.72266C11.6914 7.77734 11.7305 7.84375 11.7305 7.92188ZM6.86719 12.7969H4.72266V11.332H7.72266L6.86719 12.7969ZM14.1445 11.332L14.9766 12.7969H9.19922L10.0547 11.332H14.1445ZM16.3828 11.332H19.4414V12.7969H17.2148L16.3828 11.332ZM12.3164 4.89844C12.4023 4.89844 12.4648 4.93359 12.5039 5.00391L16.582 12.1523L15.293 12.8906C15.2539 12.8125 15.1641 12.6523 15.0234 12.4102C14.8828 12.168 14.7109 11.875 14.5078 11.5312C14.3047 11.1875 14.0859 10.8047 13.8516 10.3828C13.6172 9.96094 13.375 9.53516 13.125 9.10547C12.875 8.67578 12.6367 8.25781 12.4102 7.85156C12.1836 7.44531 11.9766 7.08203 11.7891 6.76172C11.6016 6.44141 11.457 6.17969 11.3555 5.97656C11.2539 5.77344 11.1992 5.66406 11.1914 5.64844C11.1914 5.5625 11.2266 5.49609 11.2969 5.44922C11.3281 5.42578 11.3945 5.38672 11.4961 5.33203C11.5977 5.27734 11.707 5.21484 11.8242 5.14453C11.9414 5.07422 12.0469 5.01953 12.1406 4.98047C12.2344 4.94141 12.293 4.91406 12.3164 4.89844ZM10.9102 9.41016L7.35938 15.5156L6 14.7188L9.5625 8.625L10.9102 9.41016ZM12 0C13.1016 0 14.1641 0.140625 15.1875 0.421875C16.2109 0.703125 17.1641 1.10938 18.0469 1.64062C18.9297 2.17188 19.7383 2.79688 20.4727 3.51562C21.207 4.23438 21.8359 5.04297 22.3594 5.94141C22.8828 6.83984 23.2852 7.79688 23.5664 8.8125C23.8477 9.82812 23.9922 10.8906 24 12C24 13.1016 23.8594 14.1641 23.5781 15.1875C23.2969 16.2109 22.8906 17.1641 22.3594 18.0469C21.8281 18.9297 21.2031 19.7383 20.4844 20.4727C19.7656 21.207 18.957 21.8359 18.0586 22.3594C17.1602 22.8828 16.2031 23.2852 15.1875 23.5664C14.1719 23.8477 13.1094 23.9922 12 24C10.8984 24 9.83594 23.8594 8.8125 23.5781C7.78906 23.2969 6.83594 22.8906 5.95312 22.3594C5.07031 21.8281 4.26172 21.2031 3.52734 20.4844C2.79297 19.7656 2.16406 18.957 1.64062 18.0586C1.11719 17.1602 0.714844 16.2031 0.433594 15.1875C0.152344 14.1719 0.0078125 13.1094 0 12C0 10.8984 0.140625 9.83594 0.421875 8.8125C0.703125 7.78906 1.10938 6.83594 1.64062 5.95312C2.17188 5.07031 2.79688 4.26172 3.51562 3.52734C4.23438 2.79297 5.04297 2.16406 5.94141 1.64062C6.83984 1.11719 7.79688 0.714844 8.8125 0.433594C9.82812 0.152344 10.8906 0.0078125 12 0ZM12 22.8633C13 22.8633 13.9609 22.7344 14.8828 22.4766C15.8047 22.2188 16.6719 21.8555 17.4844 21.3867C18.2969 20.918 19.0273 20.3516 19.6758 19.6875C20.3242 19.0234 20.8906 18.2891 21.375 17.4844C21.8594 16.6797 22.2266 15.8164 22.4766 14.8945C22.7266 13.9727 22.8555 13.0078 22.8633 12C22.8633 11 22.7344 10.0391 22.4766 9.11719C22.2188 8.19531 21.8555 7.32812 21.3867 6.51562C20.918 5.70312 20.3516 4.97266 19.6875 4.32422C19.0234 3.67578 18.2891 3.10938 17.4844 2.625C16.6797 2.14062 15.8164 1.77344 14.8945 1.52344C13.9727 1.27344 13.0078 1.14453 12 1.13672C11 1.13672 10.0391 1.26562 9.11719 1.52344C8.19531 1.78125 7.32812 2.14453 6.51562 2.61328C5.70312 3.08203 4.97266 3.64844 4.32422 4.3125C3.67578 4.97656 3.10938 5.71094 2.625 6.51562C2.14062 7.32031 1.77344 8.18359 1.52344 9.10547C1.27344 10.0273 1.14453 10.9922 1.13672 12C1.13672 13 1.26562 13.9609 1.52344 14.8828C1.78125 15.8047 2.14453 16.6719 2.61328 17.4844C3.08203 18.2969 3.64844 19.0273 4.3125 19.6758C4.97656 20.3242 5.71094 20.8906 6.51562 21.375C7.32031 21.8594 8.18359 22.2266 9.10547 22.4766C10.0273 22.7266 10.9922 22.8555 12 22.8633Z" fill="black"/>
</g>
<defs>
<clipPath id="clip0_119_66">
<rect width="24" height="24" fill="white"/>
</clipPath>
</defs>
</svg>
